# xmcd
# 
# Track frame offsets:
#     150
#     18461
#     39424
#     60861
#     80389
#     99812
#     122528
# 
# Disc length: 1906
# 
# Revision: 0
# Processed by: cddbd v1.5.2PL0 Copyright (c) Steve Scherf et al.
# Submitted via: fre:ac v1.0.17
# 
DISCID=41077007
DTITLE=Goose house - 恋愛小説と、通過列車と、1gのため息。
DYEAR=2016
DGENRE=JPop
TTITLE0=放課後ヒロイン-齊藤ジョニー
TTITLE1=ひだりまり-沙夜香
TTITLE2=25時のシンデレラ-マナミ
TTITLE3=失くした恋の忘れ方-工藤秀平
TTITLE4=ずるいよ！-竹澤汀
TTITLE5=泣かないのは、もう-竹渕慶
TTITLE6=年上の彼女-ワタナベシュウヘイ
EXTD=
EXTT0=
EXTT1=
EXTT2=
EXTT3=
EXTT4=
EXTT5=
EXTT6=
PLAYORDER=
